Coordinates
version=1
nRows=21
nColumns=12
inDegrees=yes

Units are S.I. units (second, meters, Newtons, ...)
Angles are in degrees

endheader
time	SC_y	SC_z	SC_x	AC_y	AC_z	AC_x	GH_y	GH_z	GH_yy	EL_x	PS_y
       0.0              -17.58          22.08          71.85          67.58          2.469          10.15         -108.7          1.712           66.7          42.39          75.56
    0.0256              -17.58          22.08          71.85          67.58          2.467          10.15         -108.7          1.719          66.71          42.39          75.57
   0.05121              -17.58          22.08          71.85          67.58          2.465          10.15         -108.7          1.726          66.72          42.39          75.57
   0.07681              -17.58          22.08          71.85          67.58          2.463          10.15         -108.7          1.734          66.73          42.39          75.58
    0.1024              -17.58          22.08          71.85          67.58          2.461          10.15         -108.6          1.743          66.75          42.39          75.58
     0.128              -17.58          22.08          71.85          67.58          2.459          10.15         -108.6          1.752          66.76          42.39          75.59
    0.1536              -17.58          22.08          71.85          67.58          2.457          10.15         -108.6          1.761          66.77           42.4           75.6
    0.1792              -17.58          22.08          71.85          67.58          2.454          10.15         -108.5          1.772          66.79           42.4           75.6
    0.2048              -17.58          22.08          71.85          67.58          2.451          10.15         -108.5          1.783           66.8           42.4          75.61
    0.2304              -17.59          22.08          71.84          67.58          2.448          10.15         -108.4          1.795          66.82           42.4          75.62
     0.256              -17.59          22.08          71.84          67.58          2.445          10.14         -108.4          1.808          66.84           42.4          75.63
    0.2816              -17.59          22.08          71.84          67.58          2.442          10.14         -108.3          1.821          66.86          42.41          75.64
    0.3073              -17.59          22.08          71.84          67.58          2.438          10.14         -108.3          1.836          66.88          42.41          75.65
    0.3329              -17.59          22.08          71.84          67.58          2.434          10.14         -108.2          1.852           66.9          42.41          75.66
    0.3585              -17.59          22.08          71.84          67.58           2.43          10.14         -108.2           1.87          66.93          42.42          75.67
    0.3841               -17.6          22.08          71.84          67.58          2.425          10.14         -108.1          1.888          66.96          42.42          75.68
    0.4097               -17.6          22.08          71.84          67.58           2.42          10.14         -108.0          1.909          66.99          42.42           75.7
    0.4353               -17.6          22.08          71.83          67.58          2.415          10.14         -107.9          1.931          67.02          42.43          75.71
    0.4609               -17.6          22.08          71.83          67.58          2.409          10.14         -107.8          1.956          67.05          42.43          75.73
    0.4865              -17.61          22.08          71.83          67.58          2.402          10.14         -107.7          1.982          67.09          42.44          75.75
    0.5121              -17.61          22.08          71.83          67.57          2.395          10.14         -107.6          2.011          67.13          42.44          75.77
